HIERARCHY
ROOT Hips
{
	OFFSET 0.000000 0.000000 0.000000
	CHANNELS 6 Xposition Yposition Zposition Zrotation Yrotation Xrotation 
	JOINT LHipJoint
	{
		OFFSET 0.000000 0.000000 0.000000
		CHANNELS 3 Zrotation Yrotation Xrotation
		JOINT LeftUpLeg
		{
			OFFSET 1.363060 -1.794630 0.839290
			CHANNELS 3 Zrotation Yrotation Xrotation
			JOINT LeftLeg
			{
				OFFSET 2.448110 -6.726130 0.000000
				CHANNELS 3 Zrotation Yrotation Xrotation
				JOINT LeftFoot
				{
					OFFSET 2.562200 -7.039590 0.000000
					CHANNELS 3 Zrotation Yrotation Xrotation
					JOINT LeftToeBase
					{
						OFFSET 0.157640 -0.433110 2.322550
						CHANNELS 3 Zrotation Yrotation Xrotation
						End Site
						{
							OFFSET 0.000000 0.000000 0.000000
						}
					}
				}
			}
		}
	}
	JOINT RHipJoint
	{
		OFFSET 0.000000 0.000000 0.000000
		CHANNELS 3 Zrotation Yrotation Xrotation
		JOINT RightUpLeg
		{
			OFFSET -1.305520 -1.794630 0.839290
			CHANNELS 3 Zrotation Yrotation Xrotation
			JOINT RightLeg
			{
				OFFSET -2.542530 -6.985550 0.000000
				CHANNELS 3 Zrotation Yrotation Xrotation
				JOINT RightFoot
				{
					OFFSET -2.568260 -7.056230 0.000000
					CHANNELS 3 Zrotation Yrotation Xrotation
					JOINT RightToeBase
					{
						OFFSET -0.164730 -0.452590 2.363150
						CHANNELS 3 Zrotation Yrotation Xrotation
						End Site
						{
							OFFSET 0.000000 0.000000 0.000000
						}
					}
				}
			}
		}
	}
	JOINT LowerBack
	{
		OFFSET 0.000000 0.000000 0.000000
		CHANNELS 3 Zrotation Yrotation Xrotation
		JOINT Spine
		{
			OFFSET 0.028270 2.035590 -0.193380
			CHANNELS 3 Zrotation Yrotation Xrotation
			JOINT Spine1
			{
				OFFSET 0.056720 2.048850 -0.042750
				CHANNELS 3 Zrotation Yrotation Xrotation
				JOINT Neck
				{
					OFFSET 0.000000 0.000000 0.000000
					CHANNELS 3 Zrotation Yrotation Xrotation
					JOINT Neck1
					{
						OFFSET -0.054170 1.746240 0.172020
						CHANNELS 3 Zrotation Yrotation Xrotation
						JOINT Head
						{
							OFFSET 0.104070 1.761360 -0.123970
							CHANNELS 3 Zrotation Yrotation Xrotation
							End Site
							{
								OFFSET 0.000000 0.000000 0.000000
							}
						}
					}
				}
				JOINT LeftShoulder
				{
					OFFSET 0.000000 0.000000 0.000000
					CHANNELS 3 Zrotation Yrotation Xrotation
					JOINT LeftArm
					{
						OFFSET 3.362410 1.200890 -0.311210
						CHANNELS 3 Zrotation Yrotation Xrotation
						JOINT LeftForeArm
						{
							OFFSET 4.983000 -0.000000 -0.000000
							CHANNELS 3 Zrotation Yrotation Xrotation
							JOINT LeftHand
							{
								OFFSET 3.483560 -0.000000 -0.000000
								CHANNELS 3 Zrotation Yrotation Xrotation
								JOINT LeftFingerBase
								{
									OFFSET 0.000000 0.000000 0.000000
									CHANNELS 3 Zrotation Yrotation Xrotation
									JOINT LeftHandIndex1
									{
										OFFSET 0.715260 -0.000000 -0.000000
										CHANNELS 3 Zrotation Yrotation Xrotation
										End Site
										{
											OFFSET 0.000000 0.000000 0.000000
										}
									}
								}
								JOINT LThumb
								{
									OFFSET 0.000000 0.000000 0.000000
									CHANNELS 3 Zrotation Yrotation Xrotation
									End Site
									{
										OFFSET 0.000000 0.000000 0.000000
									}
								}
							}
						}
					}
				}
				JOINT RightShoulder
				{
					OFFSET 0.000000 0.000000 0.000000
					CHANNELS 3 Zrotation Yrotation Xrotation
					JOINT RightArm
					{
						OFFSET -3.136600 1.374050 -0.404650
						CHANNELS 3 Zrotation Yrotation Xrotation
						JOINT RightForeArm
						{
							OFFSET -5.241900 -0.000000 -0.000000
							CHANNELS 3 Zrotation Yrotation Xrotation
							JOINT RightHand
							{
								OFFSET -3.444170 -0.000000 -0.000000
								CHANNELS 3 Zrotation Yrotation Xrotation
								JOINT RightFingerBase
								{
									OFFSET 0.000000 0.000000 0.000000
									CHANNELS 3 Zrotation Yrotation Xrotation
									JOINT RightHandIndex1
									{
										OFFSET -0.622530 -0.000000 -0.000000
										CHANNELS 3 Zrotation Yrotation Xrotation
										End Site
										{
											OFFSET 0.000000 0.000000 0.000000
										}
									}
								}
								JOINT RThumb
								{
									OFFSET 0.000000 0.000000 0.000000
									CHANNELS 3 Zrotation Yrotation Xrotation
									End Site
									{
										OFFSET 0.000000 0.000000 0.000000
									}
								}
							}
						}
					}
				}
			}
		}
	}
}
MOTION
Frames: 12
Frame Time: 0.008333
0.458750 28.507124 -8.988089 177.741450 -43.823586 -178.051590 -1.770284 5.269284 5.150919 -21.525829 14.987021 -29.947635 3.989847 11.347279 38.139227 -2.291459 15.244640 -20.321515 0.018200 -0.871900 -2.396300 -3.647898 -6.417290 4.545573 27.737060 12.857858 -6.141559 -3.126068 -7.252564 29.450425 3.515562 -19.191971 -23.421506 -0.118900 -2.223100 6.122700 4.368553 3.033554 -0.833747 -10.259123 3.731340 18.225866 2.836669 2.163956 -11.285225 -4.764898 2.017740 -13.522216 6.348854 2.717294 8.987083 3.044800 1.574600 3.307100 -6.005276 -0.700401 -1.321498 -83.899194 0.124602 9.755175 13.460152 -20.405764 -2.412297 -0.505385 -1.002616 0.799457 23.368482 18.260554 8.313300 -7.125000 0.000000 0.000000 -4.453600 50.865700 -0.644800 9.058473 0.861751 -2.159159 74.288133 0.348362 35.732407 -18.610598 24.202952 -5.302647 0.917975 0.338307 14.847408 -24.505505 6.071194 -2.557700 7.125000 0.000000 0.000000 1.030100 -23.987800 0.522400 
0.444321 28.500390 -8.996265 178.071179 -44.743334 -178.350643 -1.760417 5.285690 5.136270 -21.529991 15.281281 -30.070191 3.960106 11.311106 37.945480 -2.507657 15.688733 -19.592800 0.077900 -1.800200 -4.953900 -3.637092 -6.414972 4.528886 28.071231 12.455348 -5.951618 -3.109411 -7.219735 29.392549 3.553359 -19.541354 -23.914067 -0.118400 -2.218100 6.108700 4.546410 2.991711 -0.809299 -10.145230 3.679463 18.064314 2.735073 2.139234 -11.342256 -4.762841 2.026211 -13.558679 6.378761 2.700399 9.410530 3.050400 1.571600 3.394900 -6.043917 -0.703482 -1.301744 -83.889185 0.192206 9.257406 13.225727 -20.057080 -2.315594 -0.528648 -1.005417 1.323457 23.655117 18.660407 8.597700 -7.125000 0.000000 0.000000 -4.259300 51.349800 -0.667200 9.079796 0.851429 -2.145082 74.282943 0.359456 35.547891 -18.592902 24.167291 -5.279401 0.932234 0.341693 14.696910 -24.695134 5.999709 -2.544300 7.125000 0.000000 0.000000 0.876300 -24.064000 0.442900 
0.427487 28.493753 -8.998478 178.487689 -45.668110 -178.679318 -1.746160 5.289257 5.133851 -21.448473 15.184260 -30.040821 3.912467 11.262568 37.743251 -2.571819 15.836016 -19.431898 0.092800 -1.965100 -5.409100 -3.617808 -6.407003 4.514735 28.421038 12.045032 -5.811485 -3.087485 -7.175762 29.297646 3.653558 -20.060577 -24.358392 -0.113300 -2.170100 5.975900 4.774924 2.926778 -0.871461 -9.883057 3.592374 17.975011 2.562994 2.095017 -11.349261 -4.865075 2.042486 -13.627316 6.293728 2.729955 9.784128 3.044000 1.584800 3.476700 -6.090395 -0.706062 -1.291881 -83.913988 0.322695 9.126929 13.086818 -19.855522 -2.257331 -0.557665 -1.023784 1.410329 24.318528 19.384815 9.187000 -7.125000 0.000000 0.000000 -3.759200 52.264500 -0.673000 9.072696 0.845349 -2.132363 74.160348 0.370108 35.423865 -18.660666 24.258297 -5.317376 0.920468 0.349644 14.402794 -24.540688 6.120298 -2.582300 7.125000 0.000000 0.000000 1.002000 -23.938900 0.509300 
0.407863 28.491156 -8.998189 178.915079 -46.496637 -179.057111 -1.733937 5.286035 5.141766 -21.317528 14.822051 -29.846447 3.861423 11.207577 37.559249 -2.585545 15.947213 -19.613294 0.071000 -1.718900 -4.729400 -3.596418 -6.395592 4.503428 28.756719 11.785588 -5.565835 -3.059183 -7.119365 29.164625 3.754703 -20.554313 -24.746253 -0.098800 -2.027500 5.581600 4.976749 2.885999 -0.944391 -9.568520 3.535214 17.969791 2.389756 2.065818 -11.356276 -4.911565 2.026140 -13.803552 6.108068 2.723071 10.256219 3.011400 1.578600 3.595300 -6.142468 -0.704190 -1.283162 -83.973204 0.378062 8.963640 12.930183 -19.621869 -2.195343 -0.572006 -1.034162 1.292113 24.593435 19.706977 9.448600 -7.125000 0.000000 0.000000 -3.551100 52.670800 -0.671000 9.045328 0.842156 -2.120675 74.069687 0.378552 35.051250 -18.773594 24.411230 -5.379991 0.905958 0.350380 14.328315 -24.424123 6.318438 -2.661800 7.125000 0.000000 0.000000 1.103800 -23.722100 0.566600 
0.392568 28.487885 -9.000017 179.141280 -47.244604 -179.325353 -1.735402 5.276989 5.143494 -21.306008 14.567177 -29.643340 3.808055 11.141950 37.367982 -2.586455 16.079331 -19.946857 0.077700 -1.797600 -4.946800 -3.578392 -6.390986 4.490077 28.968667 11.657929 -5.266188 -3.027221 -7.062114 29.007074 3.873964 -21.050807 -25.032078 -0.087500 -1.908100 5.251700 4.934333 2.882132 -0.941558 -9.352091 3.514151 17.920771 2.376607 2.070451 -11.396290 -4.899461 2.001678 -13.866257 5.957847 2.695378 10.603144 2.981200 1.561400 3.673400 -6.192462 -0.704445 -1.271145 -84.013358 0.318152 8.457702 12.660795 -19.208734 -2.088482 -0.599050 -1.037433 1.522359 25.005101 20.006152 9.763500 -7.125000 0.000000 0.000000 -3.187000 53.076800 -0.633800 9.030315 0.852274 -2.105493 74.027778 0.477497 34.689487 -18.835676 24.487393 -5.405587 0.900997 0.364556 14.221905 -24.383161 6.208666 -2.599800 7.125000 0.000000 0.000000 1.136400 -23.857500 0.579800 
0.378909 28.483460 -9.002326 179.516303 -47.997722 -179.677152 -1.725826 5.267953 5.146439 -21.163900 14.283378 -29.450070 3.745744 11.080415 37.171645 -2.608133 16.408521 -20.581846 0.103300 -2.072300 -5.705400 -3.558696 -6.383707 4.482763 29.298405 11.603281 -4.940761 -2.987998 -6.994139 28.831742 3.906621 -21.361752 -25.467409 -0.093500 -1.971800 5.427600 4.919533 2.911596 -1.006216 -9.004108 3.528681 17.918822 2.306230 2.093188 -11.386626 -5.022373 1.953284 -13.836346 5.961326 2.639950 10.704507 2.991800 1.531500 3.692000 -6.255042 -0.716522 -1.265020 -84.042329 0.138151 7.891729 12.316183 -18.675950 -1.957192 -0.634981 -1.030402 1.978932 25.492047 20.156550 10.049600 -7.125000 0.000000 0.000000 -2.693800 53.331900 -0.552400 9.012898 0.869928 -2.097256 73.964772 0.620401 34.276527 -18.873054 24.522439 -5.412741 0.904703 0.356608 14.254635 -24.522586 6.295719 -2.660200 7.125000 0.000000 0.000000 1.031400 -23.748400 0.528800 
0.356976 28.480093 -9.008290 179.955240 -48.976430 179.928655 -1.710486 5.256642 5.165359 -20.920511 13.783088 -29.116603 3.669645 11.002049 36.945499 -2.542007 16.553633 -21.476152 0.063900 -1.631200 -4.487400 -3.526869 -6.380872 4.483100 29.618929 11.292478 -4.677466 -2.948857 -6.930192 28.678529 3.791618 -21.306855 -26.040732 -0.116900 -2.204600 6.071500 4.856565 2.875985 -1.280355 -8.442236 3.432672 18.041510 2.214967 2.064102 -11.266917 -5.142551 1.890520 -13.938803 5.923499 2.568593 10.972812 2.994600 1.494500 3.768600 -6.334545 -0.726113 -1.262838 -84.216241 -0.084750 7.111178 11.975940 -18.139764 -1.830941 -0.671994 -1.020754 2.786267 25.821006 20.384561 10.303700 -7.125000 0.000000 0.000000 -2.388200 53.642500 -0.507700 8.960420 0.893039 -2.090383 73.768481 0.669948 33.965348 -18.976870 24.653539 -5.454724 0.918418 0.364767 14.230106 -24.882822 6.158818 -2.632800 7.125000 0.000000 0.000000 0.751300 -23.896100 0.382600 
0.327445 28.473937 -9.016947 -179.638771 -50.123619 179.502877 -1.703399 5.250109 5.200160 -20.651364 13.247170 -28.633524 3.576053 10.891951 36.642558 -2.177823 15.682692 -22.370937 0.003000 -0.352300 -0.968000 -3.488028 -6.387538 4.479483 29.848937 10.639203 -4.493625 -2.925782 -6.886535 28.576974 3.708577 -21.191987 -26.298176 -0.139800 -2.409400 6.638600 4.698567 2.726520 -1.601800 -7.818563 3.175661 18.190549 2.161385 1.960245 -11.132220 -5.324109 1.885883 -14.145837 5.951426 2.568195 11.440503 3.026600 1.496600 3.893700 -6.413052 -0.736602 -1.254273 -84.458056 -0.291666 5.682478 11.569491 -17.499396 -1.686769 -0.708044 -0.987525 4.150422 25.864957 20.167794 10.222900 -7.125000 0.000000 0.000000 -2.266800 53.399900 -0.468500 8.904048 0.912235 -2.080039 73.504385 0.707492 33.888089 -19.094062 24.812499 -5.515922 0.917877 0.379895 13.805221 -24.972261 6.162414 -2.640200 7.125000 0.000000 0.000000 0.684400 -23.898800 0.348500 
0.306186 28.465472 -9.026951 -179.393163 -51.110403 179.183884 -1.713276 5.241461 5.222970 -20.461297 12.767107 -28.145993 3.484956 10.758729 36.248341 -2.106082 15.416052 -22.376383 0.002000 -0.288000 -0.791300 -3.465392 -6.395870 4.475570 30.038690 10.328561 -4.229820 -2.909424 -6.857245 28.511427 3.754593 -21.513047 -26.649831 -0.151100 -2.505200 6.904200 4.416689 2.639959 -1.797170 -7.419851 3.010794 18.287972 2.214918 1.907759 -11.070778 -5.575834 1.908134 -14.452711 6.170732 2.580145 12.023818 3.115400 1.514700 4.046300 -6.465774 -0.755519 -1.229434 -84.657448 -0.656993 3.174515 11.054777 -16.696381 -1.513627 -0.745717 -0.917349 6.724040 25.562394 19.493069 9.771700 -7.125000 0.000000 0.000000 -2.399700 52.571900 -0.447400 8.879931 0.925607 -2.066476 73.368248 0.835678 33.723148 -19.140010 24.872438 -5.538702 0.906508 0.391512 13.462597 -24.804970 6.175767 -2.624500 7.125000 0.000000 0.000000 0.816600 -23.896100 0.415900 
0.286658 28.463355 -9.034839 -179.898935 -51.974216 179.585902 -1.784080 5.200357 5.217678 -20.756849 12.223045 -27.680137 3.392043 10.591279 35.797223 -2.350079 16.098006 -22.030056 0.042500 -1.330300 -3.658000 -3.471507 -6.412013 4.456913 29.722107 10.258480 -4.166110 -2.904668 -6.872697 28.526708 3.799653 -21.870404 -27.075855 -0.161200 -2.587100 7.131200 3.994123 2.686872 -1.952326 -7.795382 3.039145 18.140261 2.522580 1.948239 -10.987305 -5.837845 2.007522 -14.545022 6.751842 2.631692 12.461538 3.289200 1.566600 4.138100 -6.409542 -0.774776 -1.207965 -84.599780 -0.593638 3.908903 10.930250 -16.486229 -1.466634 -0.792824 -0.957474 5.160424 27.192826 20.255009 10.872000 -7.125000 0.000000 0.000000 -0.821700 53.748300 -0.176700 8.929218 0.922678 -2.053475 73.376365 0.849339 33.413181 -19.189972 24.929464 -5.551864 0.917115 0.412779 13.333097 -25.003686 5.855386 -2.483700 7.125000 0.000000 0.000000 0.654200 -24.266300 0.327600 
0.261937 28.464414 -9.029356 -179.985255 -52.860331 179.645222 -1.840921 5.179348 5.231317 -20.764078 11.637117 -27.149449 3.272440 10.420689 35.293857 -2.311108 16.015133 -22.173362 0.032000 -1.154100 -3.172800 -3.477415 -6.414286 4.435808 29.619254 10.007217 -4.200204 -2.930996 -6.924124 28.691747 3.711085 -21.759683 -27.351733 -0.187900 -2.791800 7.699600 4.018432 2.720683 -2.064621 -8.080783 3.079300 18.038640 2.563110 1.964379 -10.905347 -6.125103 2.170067 -14.452626 7.478344 2.752888 12.623628 3.487600 1.657300 4.146300 -6.344244 -0.800897 -1.203561 -84.226302 -0.242546 6.330747 10.973717 -16.538925 -1.484015 -0.767687 -1.019784 2.701510 27.416797 20.918854 11.309800 -7.125000 0.000000 0.000000 -0.736800 54.549300 -0.172900 8.980213 0.912166 -2.051144 73.419130 0.890070 32.965453 -19.222409 24.948503 -5.547252 0.927073 0.438893 13.453865 -25.182771 5.324372 -2.231700 7.125000 0.000000 0.000000 0.503900 -24.880800 0.245100 
0.238369 28.459893 -9.022815 -179.905246 -53.675285 179.503128 -1.885385 5.174326 5.259242 -20.644336 11.132379 -26.551016 3.147841 10.241122 34.755894 -2.135145 15.432220 -22.275992 0.003700 -0.394500 -1.084100 -3.477479 -6.415900 4.422555 29.631084 9.733757 -4.230100 -2.979798 -7.005966 28.971754 3.591308 -21.576498 -27.656750 -0.204600 -2.912600 8.035400 3.999630 2.714831 -2.152500 -8.137389 3.064470 18.045790 2.570913 1.956751 -10.855848 -6.327743 2.281859 -14.486620 7.916552 2.846768 12.814338 3.613700 1.724300 4.177800 -6.335814 -0.829788 -1.183708 -84.248217 -0.540037 4.974655 10.575020 -15.910381 -1.357465 -0.793762 -0.995708 4.056319 27.225587 21.070333 11.290300 -7.125000 0.000000 0.000000 -0.974700 54.665800 -0.231500 9.010054 0.916797 -2.050170 73.457872 0.992441 32.552856 -19.211112 24.917304 -5.529499 0.924230 0.430569 13.662373 -25.167586 5.332773 -2.237200 7.125000 0.000000 0.000000 0.518100 -24.864800 0.252200 
